<svg width="100" height="100" viewBox="0 0 100 100" fill="none" xmlns="http://www.w3.org/2000/svg">
<path d="M66.4141 27.2493C60.4062 27.2493 54.7737 28.4218 49.922 30.4692C45.0701 28.4218 39.4376 27.2493 33.4296 27.2493C15.2125 27.2493 0.444458 38.0214 0.444458 51.3106C0.444458 51.9068 0.475214 52.4961 0.534025 53.0819C0.543996 53.1822 0.555825 53.2818 0.567148 53.3816C2.0075 65.7006 16.1689 75.3719 33.4296 75.3719C37.5411 75.3719 41.476 74.8212 45.1063 73.8179C46.7807 73.3551 48.3905 72.7976 49.922 72.1519C59.0079 68.3174 65.3528 61.4118 66.2914 53.3811C66.3029 53.2813 66.3153 53.1817 66.3251 53.0813H66.2544H49.9215H33.5893C34.6503 45.1784 40.9496 38.3985 49.9225 34.6114C51.4543 33.9659 53.0643 33.4071 54.738 32.9451C58.3682 31.9431 62.3031 31.3919 66.4146 31.3919C83.5348 31.3919 97.6068 40.906 99.2405 53.0813C99.2533 53.1809 99.2653 53.2813 99.2771 53.3811C99.288 53.2813 99.3008 53.1817 99.3108 53.0813C99.3686 52.4951 99.3998 51.9063 99.3998 51.3101C99.3993 38.0224 84.6318 27.2493 66.4141 27.2493Z" fill="#565656"/>
<path d="M99.2765 53.3827C99.2647 53.2823 99.2527 53.1818 99.2398 53.0824C97.6061 40.9074 83.5343 31.3929 66.4142 31.3929C62.3025 31.3929 58.3676 31.9432 54.7374 32.946C53.0631 33.4092 51.4531 33.9668 49.9218 34.6125C40.949 38.3995 34.6496 45.1793 33.5889 53.0824H49.9218H66.2548H66.3254C66.3151 53.1828 66.3033 53.2823 66.2918 53.3827C65.3534 61.4124 59.0082 68.3189 49.9223 72.1535C48.3904 72.7992 46.7805 73.3577 45.1066 73.8194C41.4764 74.8217 37.5415 75.3735 33.43 75.3735C16.1692 75.3735 2.00787 65.702 0.567514 53.3837C0.487917 54.067 0.444824 54.7562 0.444824 55.4558C0.444824 68.744 15.2129 79.5171 33.43 79.5171C39.438 79.5171 45.0705 78.3451 49.9223 76.2972C54.774 78.3451 60.4065 79.5171 66.4145 79.5171C84.6316 79.5171 99.3997 68.745 99.3997 55.4558C99.3992 54.7558 99.3556 54.066 99.2765 53.3827Z" fill="black"/>
</svg>
