<svg width="100" height="100" viewBox="0 0 100 100" fill="none" xmlns="http://www.w3.org/2000/svg">
<circle cx="50" cy="50" r="50" fill="#28303A"/>
<path d="M59.7588 34.5358C56.2037 34.5358 52.8708 35.2296 49.9999 36.4411C47.1289 35.2296 43.796 34.5358 40.2409 34.5358C29.4613 34.5358 20.7226 40.91 20.7226 48.7736C20.7226 49.1264 20.7408 49.4751 20.7756 49.8217C20.7815 49.8811 20.7885 49.94 20.7952 49.9991C21.6475 57.2886 30.0272 63.0114 40.2409 63.0114C42.6738 63.0114 45.0022 62.6855 47.1503 62.0918C48.1411 61.818 49.0937 61.4881 49.9999 61.106C55.3763 58.837 59.1308 54.7508 59.6862 49.9988C59.693 49.9397 59.7003 49.8808 59.7061 49.8214H59.6643H49.9996H40.3354C40.9632 45.145 44.6907 41.1331 50.0002 38.8922C50.9066 38.5102 51.8593 38.1796 52.8497 37.9062C54.9978 37.3133 57.3262 36.9871 59.7591 36.9871C69.8896 36.9871 78.2164 42.6169 79.1831 49.8214C79.1907 49.8803 79.1978 49.9397 79.2048 49.9988C79.2112 49.9397 79.2188 49.8808 79.2247 49.8214C79.2589 49.4745 79.2774 49.1261 79.2774 48.7733C79.2771 40.9106 70.5387 34.5358 59.7588 34.5358Z" fill="#74CAF1"/>
<path d="M79.2045 49.9997C79.1975 49.9403 79.1904 49.8808 79.1828 49.822C78.2161 42.6177 69.8894 36.9877 59.7589 36.9877C57.3259 36.9877 54.9975 37.3133 52.8494 37.9067C51.8587 38.1808 50.906 38.5107 49.9999 38.8928C44.6904 41.1337 40.9629 45.1455 40.3352 49.822H49.9999H59.6646H59.7064C59.7003 49.8814 59.6933 49.9403 59.6865 49.9997C59.1312 54.7511 55.3766 58.8379 50.0002 61.1069C49.0937 61.489 48.1411 61.8195 47.1506 62.0927C45.0025 62.6858 42.6741 63.0123 40.2412 63.0123C30.0275 63.0123 21.6478 57.2894 20.7955 50.0003C20.7484 50.4046 20.7229 50.8124 20.7229 51.2264C20.7229 59.0894 29.4616 65.4642 40.2412 65.4642C43.7963 65.4642 47.1292 64.7707 50.0002 63.5589C52.8711 64.7707 56.204 65.4642 59.7591 65.4642C70.5387 65.4642 79.2774 59.09 79.2774 51.2264C79.2771 50.8122 79.2513 50.404 79.2045 49.9997Z" fill="#3B9AC9"/>
</svg>
