<svg width="1000" height="1001" viewBox="0 0 1000 1001" fill="none" xmlns="http://www.w3.org/2000/svg">
<path d="M900 0.831055H100C44.7715 0.831055 0 45.6026 0 100.831V900.831C0 956.06 44.7715 1000.83 100 1000.83H900C955.228 1000.83 1000 956.06 1000 900.831V100.831C1000 45.6026 955.228 0.831055 900 0.831055Z" fill="#004141"/>
<path d="M607.138 331.055C568.108 331.055 531.518 338.672 499.999 351.972C468.479 338.672 431.888 331.055 392.858 331.055C274.513 331.055 178.574 401.035 178.574 487.366C178.574 491.24 178.774 495.068 179.156 498.873C179.22 499.525 179.297 500.172 179.371 500.821C188.728 580.849 280.726 643.678 392.858 643.678C419.568 643.678 445.131 640.1 468.714 633.582C479.592 630.576 490.05 626.954 499.999 622.759C559.025 597.849 600.244 552.988 606.341 500.817C606.416 500.168 606.496 499.522 606.56 498.87H606.101H499.996H393.896C400.788 447.529 441.711 403.484 500.002 378.882C509.953 374.688 520.413 371.059 531.286 368.057C554.869 361.548 580.432 357.966 607.142 357.966C718.361 357.966 809.778 419.774 820.391 498.87C820.474 499.516 820.552 500.168 820.629 500.817C820.699 500.168 820.783 499.522 820.848 498.87C821.223 495.061 821.426 491.236 821.426 487.363C821.423 401.041 725.487 331.055 607.138 331.055Z" fill="white"/>
<path d="M820.625 500.827C820.548 500.175 820.47 499.522 820.387 498.876C809.774 419.783 718.358 357.973 607.139 357.973C580.428 357.973 554.865 361.548 531.282 368.062C520.405 371.072 509.946 374.694 499.998 378.889C441.707 403.491 400.784 447.535 393.893 498.876H499.998H606.104H606.563C606.496 499.528 606.419 500.175 606.344 500.827C600.248 552.991 559.027 597.859 500.002 622.769C490.049 626.964 479.591 630.593 468.717 633.592C445.134 640.103 419.571 643.688 392.861 643.688C280.728 643.688 188.731 580.858 179.374 500.834C178.856 505.273 178.577 509.75 178.577 514.295C178.577 600.62 274.516 670.607 392.861 670.607C431.891 670.607 468.482 662.993 500.002 649.689C531.52 662.993 568.111 670.607 607.141 670.607C725.487 670.607 821.426 600.626 821.426 514.295C821.422 509.747 821.139 505.266 820.625 500.827Z" fill="#F7A600"/>
</svg>
